<?xml version="1.0" encoding="UTF-8"?>
<!-- Generator: Adobe Illustrator 16.0.0, SVG Export Plug-In . SVG Version: 6.00 Build 0)  -->
<!DOCTYPE svg PUBLIC "-//W3C//DTD SVG 1.1//EN" "http://www.w3.org/Graphics/SVG/1.1/DTD/svg11.dtd">
<svg version="1.1" id="Layer_1" xmlns="http://www.w3.org/2000/svg" xmlns:xlink="http://www.w3.org/1999/xlink" x="0px" y="0px" width="708.268px" height="117.87px" viewBox="0 0 708.268 117.87" enable-background="new 0 0 708.268 117.87" xml:space="preserve">
<polygon fill="#6D79AD" points="647.015,0.202 642.636,38.998 708.18,36.099 708.188,0.202 "/>
<polygon fill="#858DBA" points="578.49,0.202 569.943,42.209 576.695,41.911 585.13,0.202 "/>
<polygon fill="#00B6E8" points="547.979,0.202 539.549,43.553 547.993,43.18 557.053,0.202 "/>
<polygon fill="#D5EDFA" points="533.886,0.202 524.374,44.224 539.549,43.553 548.803,0.202 "/>
<polygon fill="#1D478B" points="526.463,0.202 516.767,44.562 524.374,44.224 533.931,0.202 "/>
<polygon fill="#6D79AD" points="504.975,0.202 494.845,45.528 516.767,44.562 526.521,0.202 "/>
<polygon fill="#009EE0" points="496.43,0.202 486.407,45.902 494.845,45.528 505.058,0.202 "/>
<polygon fill="#D5EDFA" points="484.377,0.202 474.578,46.425 486.407,45.902 496.824,0.202 "/>
<polygon fill="#495D9A" points="465.822,0.202 455.881,47.253 474.578,46.425 485.198,0.202 "/>
<polygon fill="#003B82" points="459.896,0.202 449.332,47.542 455.881,47.253 466.283,0.202 "/>
<polygon fill="#84D0F0" points="413.151,0.202 408.947,49.326 449.33,47.542 459.942,0.202 "/>
<polygon fill="#009EE0" points="406.886,0.202 402.204,49.628 408.947,49.326 413.538,0.202 "/>
<polygon fill="#E64327" points="385.389,0.202 380.258,50.598 402.204,49.628 406.998,0.202 "/>
<polygon fill="#003B82" points="377.136,0.202 371.818,50.97 380.256,50.598 385.437,0.202 "/>
<polygon fill="#A2DAF4" points="364.033,0.202 358.388,51.563 371.813,50.97 377.238,0.202 "/>
<polygon fill="#3C5595" points="360.129,0.202 358.376,15.843 354.38,51.741 358.388,51.563 364.088,0.202 "/>
<polygon fill="#9DA2C8" points="353.293,0.202 347.712,52.035 354.38,51.741 358.376,15.843 360.13,0.202 "/>
<polygon fill="#D5EDFA" points="343.796,0.202 337.63,52.482 347.712,52.035 353.598,0.202 "/>
<polygon fill="#009EE0" points="325.751,0.202 323.289,22.017 328.044,21.806 328.044,52.907 337.63,52.482 343.9,0.202 "/>
<polygon fill="#D5EDFA" points="318.871,0.202 316.15,22.324 323.289,22.017 325.935,0.202 "/>
<polygon fill="#495D9A" points="306.716,0.202 306.857,22.732 316.15,22.324 318.905,0.202 "/>
<polygon fill="#84D0F0" points="283.095,0.202 283.64,23.745 306.857,22.732 306.9,0.202 "/>
<polygon fill="#00B0E6" points="273.763,0.202 273.832,24.171 283.64,23.745 283.574,0.202 "/>
<polygon fill="#5566A0" points="228.421,0.202 228.366,26.153 273.832,24.171 273.832,0.202 "/>
<polygon fill="#A774A7" points="221.799,0.202 221.441,26.457 228.366,26.153 228.421,0.202 "/>
<polygon fill="#B5B8D5" points="203.516,0.202 202.863,27.265 221.441,26.457 221.981,0.202 "/>
<polygon fill="#009EE0" points="196.49,0.202 195.71,27.58 202.861,27.265 203.589,0.202 "/>
<polygon fill="#84D0F0" points="183.783,0.202 182.838,28.138 195.71,27.58 196.564,0.202 "/>
<polygon fill="#003B82" points="177.429,0.202 176.412,28.42 182.838,28.138 183.82,0.202 "/>
<polygon fill="#D5EDFA" points="158.949,0.202 157.791,29.228 176.412,28.42 177.429,0.202 "/>
<polygon fill="#EE7F00" points="151.937,0.202 150.652,29.542 157.791,29.228 159.026,0.202 "/>
<polygon fill="#6D79AD" points="146.104,0.202 144.562,29.808 150.646,29.542 152.015,0.202 "/>
<polygon fill="#1D478B" points="102.332,0.202 103.131,31.613 144.562,29.808 146.22,0.202 "/>
<polygon fill="#A774A7" points="99.253,0.202 100.013,31.745 103.131,31.613 102.336,0.202 "/>
<polygon fill="#B5B8D5" points="80.85,0.202 81.413,32.559 100.011,31.745 99.335,0.202 "/>
<polygon fill="#EE7F00" points="73.773,0.202 74.252,32.872 81.413,32.559 80.884,0.202 "/>
<polygon fill="#5EC5ED" points="61.063,0.202 61.374,33.434 74.252,32.872 73.858,0.202 "/>
<polygon fill="#781777" points="54.777,0.202 54.918,33.715 61.371,33.434 61.129,0.202 "/>
<polygon fill="#D5EDFA" points="35.906,0.202 36.297,34.526 54.918,33.715 54.777,0.202 "/>
<polygon fill="#009EE0" points="29.184,0.202 29.142,34.839 36.294,34.526 36.202,0.202 "/>
<polygon fill="#E64327" points="19.201,0.202 19.089,35.278 29.139,34.839 29.184,0.202 "/>
<polygon fill="#003B82" points="-0.303,0.202 -0.303,36.119 19.089,35.278 19.201,0.202 "/>
<polygon fill="#009EE0" points="638.05,0.202 630.777,39.519 642.636,38.998 649.701,0.202 "/>
<polygon fill="#003B82" points="584.848,0.202 576.695,41.911 630.777,39.519 638.001,0.202 "/>
<polygon fill="#3C5595" points="556.955,0.202 547.993,43.18 569.943,42.209 578.535,0.202 "/>
<polygon fill="#003B82" points="123.929,79.707 118.867,66.973 113.804,79.625 118.867,92.362 "/>
<polygon fill="#003B82" points="114.595,57.641 109.533,44.908 104.471,57.56 109.533,70.295 "/>
<polygon fill="#003B82" points="133.183,57.48 128.201,44.746 123.137,57.48 128.201,70.219 "/>
<polygon fill="#009EE0" points="151.929,101.932 146.867,89.275 141.81,101.932 146.867,114.666 151.929,102.012 "/>
<polygon fill="#009EE0" points="142.591,79.867 137.535,67.131 132.471,79.785 137.535,92.518 "/>
<polygon fill="#009EE0" points="161.26,79.787 156.197,67.131 151.142,79.787 156.197,92.518 161.26,79.867 "/>
<g>
	<defs>
		<rect id="SVGID_1_" x="102.888" y="44.607" width="195.529" height="70.059"/>
	</defs>
	<clipPath id="SVGID_2_">
		<use xlink:href="#SVGID_1_" overflow="visible"/>
	</clipPath>
	<path clip-path="url(#SVGID_2_)" fill-rule="evenodd" clip-rule="evenodd" fill="#003B82" d="M164.899,50.759   c-0.947-0.316-1.581-0.555-3.164-0.555c-3.243,0-5.696,2.215-5.696,5.537c0,3.402,2.293,5.617,5.696,5.617   c1.66,0,2.687-0.32,3.243-0.553v-5.534h-3.799v1.264h2.296v3.24c-0.396,0.078-0.711,0.16-1.74,0.16   c-2.217,0-4.032-1.66-4.032-4.195c0-2.37,1.66-4.19,4.107-4.19c1.348,0,2.223,0.238,2.931,0.789L164.899,50.759z M175.653,59.382   c-0.315,0.235-1.418,0.79-2.372,0.79c-1.344,0-2.608-1.107-2.608-2.611h5.618c0-2.53-0.873-4.428-3.483-4.428   c-2.215,0-3.641,1.582-3.641,3.953c0,2.532,1.267,4.272,4.035,4.272c1.266,0,1.9-0.395,2.451-0.553V59.382z M170.672,56.453   c0.158-1.025,0.711-2.215,2.135-2.215c1.267,0,1.979,1.033,1.979,2.215H170.672z M180.322,61.119h1.503v-3.953   c0-1.425,0.555-2.928,2.055-2.928c1.108,0,1.347,1.268,1.347,2.215v4.666h1.423v-3.953c0-1.425,0.635-2.928,2.059-2.928   c1.183,0,1.423,1.268,1.423,2.215v4.666h1.422v-4.982c0-1.742-0.711-3.004-2.686-3.004c-0.716,0-1.901,0.397-2.457,1.503   c-0.396-1.027-1.268-1.503-2.213-1.503c-1.104,0-1.896,0.397-2.451,1.263h-0.084V53.29h-1.34V61.119z M202.071,59.382   c-0.314,0.235-1.419,0.79-2.368,0.79c-1.346,0-2.617-1.107-2.617-2.611h5.62c0-2.53-0.87-4.428-3.483-4.428   c-2.214,0-3.635,1.582-3.635,3.953c0,2.532,1.262,4.272,4.034,4.272c1.263,0,1.896-0.395,2.449-0.553V59.382z M197.085,56.453   c0.161-1.025,0.715-2.215,2.137-2.215c1.27,0,1.979,1.033,1.979,2.215H197.085z M212.75,59.382c-0.315,0.235-1.426,0.79-2.373,0.79   c-1.343,0-2.609-1.107-2.609-2.611h5.615c0-2.53-0.87-4.428-3.479-4.428c-2.218,0-3.641,1.582-3.641,3.953   c0,2.532,1.267,4.272,4.035,4.272c1.266,0,1.896-0.395,2.451-0.553V59.382z M207.767,56.453c0.155-1.025,0.711-2.215,2.137-2.215   c1.263,0,1.973,1.033,1.973,2.215H207.767z M217.491,61.119h1.429V57.48c0-1.896,0.708-3.243,2.374-3.243   c1.265,0.081,1.657,1.033,1.657,2.847v4.034h1.428v-4.666c0-2.058-0.873-3.321-2.928-3.321c-1.106,0-2.135,0.553-2.531,1.425h-0.08   V53.29h-1.349V61.119z M233.157,53.29h-2.062v-2.294l-1.42,0.479v1.815h-1.821v1.185h1.821v4.59c0,1.506,0.869,2.293,2.372,2.293   c0.476,0,0.953-0.078,1.266-0.238v-1.266c-0.238,0.162-0.558,0.318-1.025,0.318c-0.639,0-1.192-0.555-1.192-1.424v-4.274h2.062   V53.29z M243.042,59.382c-0.316,0.235-1.423,0.79-2.374,0.79c-1.344,0-2.607-1.107-2.607-2.611h5.614c0-2.53-0.87-4.428-3.48-4.428   c-2.216,0-3.643,1.582-3.643,3.953c0,2.532,1.269,4.272,4.04,4.272c1.262,0,1.897-0.395,2.45-0.553V59.382z M238.061,56.453   c0.154-1.025,0.713-2.215,2.134-2.215c1.263,0,1.979,1.033,1.979,2.215H238.061z"/>
	<path clip-path="url(#SVGID_2_)" fill-rule="evenodd" clip-rule="evenodd" fill="#003B82" d="M183.168,68.791h5.3l9.175,23.492   H192.5l-2.057-5.377h-9.489l-2.056,5.377h-4.905L183.168,68.791z M185.701,73.537L185.701,73.537l-3.4,9.65h6.8L185.701,73.537z"/>
	
		<rect x="203.179" y="67.051" clip-path="url(#SVGID_2_)" fill-rule="evenodd" clip-rule="evenodd" fill="#003B82" width="4.507" height="25.234"/>
	<path clip-path="url(#SVGID_2_)" fill-rule="evenodd" clip-rule="evenodd" fill="#003B82" d="M215.913,74.963h4.192v2.451h0.079   c1.418-2.135,3.48-2.846,5.142-2.846c2.452,0,4.111,0.948,5.146,3.084c1.024-2.136,3.237-3.084,5.373-3.084   c4.271,0,5.459,2.924,5.459,6.801v10.912h-4.51V82.002c0-1.66,0-3.955-2.532-3.955c-3.003,0-3.4,3.558-3.4,5.852v8.383h-4.506   V82.002c0-1.66,0-3.955-2.615-3.955c-3.003,0-3.316,3.558-3.316,5.852v8.383h-4.511V74.963z"/>
	<path clip-path="url(#SVGID_2_)" fill-rule="evenodd" clip-rule="evenodd" fill="#003B82" d="M261.862,91.334   c-1.656,0.869-3.555,1.346-5.926,1.346c-5.778,0-9.099-3.248-9.099-8.938c0-5.062,2.69-9.174,8.066-9.174   c6.407,0,8.222,4.428,8.222,10.438h-11.935c0.155,2.847,2.135,4.425,4.897,4.425c2.219,0,4.117-0.787,5.773-1.734V91.334z    M258.859,81.922c-0.156-2.137-1.186-4.037-3.721-4.037c-2.451,0-3.792,1.742-3.947,4.037H258.859z"/>
	
		<rect x="269.141" y="67.051" clip-path="url(#SVGID_2_)" fill-rule="evenodd" clip-rule="evenodd" fill="#003B82" width="4.509" height="25.234"/>
	<path clip-path="url(#SVGID_2_)" fill-rule="evenodd" clip-rule="evenodd" fill="#003B82" d="M288.997,74.568   c5.14,0,9.093,3.479,9.093,9.174c0,4.982-3.324,8.938-9.093,8.938c-5.698,0-9.018-3.955-9.018-8.938   C279.979,78.047,283.927,74.568,288.997,74.568 M288.997,89.197c3.479,0,4.427-3.082,4.427-6.01c0-2.609-1.425-5.141-4.427-5.141   c-2.928,0-4.354,2.609-4.354,5.141C284.643,86.115,285.592,89.197,288.997,89.197"/>
</g>
</svg>