<svg xmlns="http://www.w3.org/2000/svg" width="106.889" height="60.779" viewBox="0 0 106.889 60.779"><g fill="#C00"><path d="M42.371 9.593h21.134l.457-.002c-.01-.116.006-.364.243-.753H42.694h-.511c.096.206.188.476.188.751v.004zm25.006 2.19c-.667.032-.806-.213-.813-.213v7.759s.256-.076.707-.1h.048v-5.822c-1.542-.527.058-1.624.058-1.624zm-27.2-.622l-.008-.003-.022-.008-.333-.126-.126-.046c.546.89-.512.677-.512.677.243.163.418.338.418.338s1.028.706-.316 1.323h.002v5.999c.362.01.649.079.74.11 0 .005.003.005.008.007.033.014.276.158.454.293.06.046.114.088.146.125.008.005.014.007.016.015 0 0 .103.092.188.224l.039.065a.18.18 0 0 0 .021.038l.008.021c.006.013.009.024.015.034l.002.004c.006.012.008.023.012.033.01.03.021.071.034.136.002.022.006.038.008.058.012.067.021.15.022.257v.03a.637.637 0 0 1-.009.102c-.004.018-.01.032-.016.048a.265.265 0 0 1-.07.122c-.007.008-.018.022-.029.026-.003.004-.01.006-.012.012a.064.064 0 0 1-.018.006c-.002.006-.007.007-.016.009-.014.004-.021.011-.035.014-.013.009-.134.056-.396.012 0 0-.011.033.006.085l.011.02c.005.009.007.017.011.02.005.008.005.015.01.025.005.01.018.022.025.035.004.009.012.016.014.021.008.007.013.012.015.018.013.007.019.021.028.029.004.001.006.007.008.009.01.011.025.022.038.039a.1.1 0 0 0 .02.015c.062.057.271.261.32.356 0 0 .004.011.013.021.027.048.088.139.108.176.003.006.005.009.005.013 0 0 .043.077.079.182.014.037.024.081.036.124.002.001.002.003.002.005v.017c.005.01.01.018.01.028l.002.02c0 .005.002.01.006.018.002.007.002.015.007.027.001.012.001.03.003.04.007.028.011.062.015.092a2 2 0 0 1 .021.325v.021c-.001.021-.003.066-.013.123-.005.019-.006.034-.009.052v.002l-.017.063a.567.567 0 0 1-.088.196c-.003.001-.003.006-.009.007a.075.075 0 0 1-.021.029.155.155 0 0 1-.035.04s-.036.046-.114.081a.624.624 0 0 1-.348.056s-.188-.012-.451-.142c-.018-.013-.038-.022-.06-.035v.042c-.002.024-.002.051-.002.083 0 .034 0 .074.002.118l.003.086c.005.059.013.123.019.182l.001.016v.007c.031.207.067.387.102.57.008.03.012.061.018.093a1.54 1.54 0 0 0 .024.131c.002.023.007.047.01.067l.015.11a.794.794 0 0 1 .006.076v.011c0 .046-.006.325-.111.502v-.002c-.196.229-.804.236-.846.236h-.006v2.493h.006a4.07 4.07 0 0 0 0 .221c.055 3.711 2.912 5.382 2.912 5.382.172.118.336.233.505.344a19.851 19.851 0 0 0 3.195 1.688c2.01.846 3.502 1.101 3.502 1.101.276.08.563.15.857.204 2.481.466 5.46.035 5.46.035.876-.181 1.58-.366 2.104-.516.277-.08.499-.153.679-.209.209-.07.351-.124.412-.148l.049-.019c.006-.006.014-.006.021-.007a25.277 25.277 0 0 0 1.604-.535c1.822-.688 2.928-1.406 3.315-1.678.105-.07.156-.116.156-.116 1.556-1.186 2.107-1.972 2.251-2.194.024-.049.036-.066.036-.066.481-.743.743-1.63.86-2.347.049-.272.076-.521.096-.733l.001.004s0-.213.014-.427l.002-.007v-.022c0-.018 0-.035.002-.055.004-.118.008-.229.002-.301 0-.01 0-.016-.002-.024l.002-1.274v-.851s-.163.15-.753.097v2.304h.001c0 2.73-1.68 4.029-1.68 4.029l.022-.028-23.68-21.688v.022l.001.035c0 .006.003.012.003.019v.004l.048.37-.001.27-.002.091-.002.01c0 .011 0 .016-.002.018-.003.02-.004.038-.01.058-.014.045-.034.11-.063.166v.005c-.007.011-.023.037-.05.066l-.01.008-.002.003a.241.241 0 0 1-.112.05l-.028.003h-.03l-.008-.001h-.004l-.026-.002h-.006l-.022-.003-.043-.014c-.014-.004-.024-.01-.037-.012a1.238 1.238 0 0 1-.178-.088c0-.002-.002-.005-.006-.007l-.169-.104-.091-.056s-.056-.038-.112-.068a.435.435 0 0 0-.045-.017l-.042-.019zM26.725 10.633c.708.394 1.568.82 2.32 1.224.584.315 1.412.631 1.795.815.92.435 2.021.786 2.876 1.109 1.078.412 1.944.729 2.842 1.21a8.239 8.239 0 0 0-.238-.972c-.214-.719-2.525-1.536-4.508-2.253a34.78 34.78 0 0 1-2.593-1.051c-.762-.359-1.424-.855-2.208-1.244-.439-.228-.933-.656-1.231-.852-.437-.284-1.176-.754-1.711-1.208-.509-.431-.898-.96-1.408-1.413-.146.439-.251 1.063-.138 1.298.834 1.71 2.6 2.448 4.202 3.337z"/><path d="M23.24 10.409c.842.714 1.842 1.268 2.87 1.793 1.235.63 2.527 1.2 3.882 1.697.769.284 1.561.711 2.338 1.009.503.189.964.31 1.448.522.886.391 1.734.811 2.647 1.21.254.109.503.372.642.421.25.036-.114-1.229-.224-1.33-.254-.197-1.88-.99-2.458-1.185a54.023 54.023 0 0 1-3.519-1.359c-.45-.193-1.133-.54-1.62-.779-.896-.438-2.153-1.006-3.139-1.521-.681-.36-1.204-.729-1.843-1.141-1.239-.793-1.77-1.71-1.853-1.654-.098.261-.196 1.136-.037 1.397.115.181.594.699.866.92zM30.123 3.018c1.503.672-.076.948-1.056.964.411.233 1.013.447 1.173.889.119-.766 1.243-1.134 2.66-.358.385.207 1.162.884.048 1.007.194.279.479.258.438.767-.093 1.07-2.462.446-3.104.077-.211-.121-.365-.367-.564-.521-.046.197.01.383-.042.685-.052.361-.277.656-.36 1.048-.219 1.114 1.225 1.38 2.139 1.408.098.087.105.253.102.406-.004.229.063.354.374.318.216-.172.083-.775-.032-1.086-.123-.312-.543.174-.56-.34-.021-.619.474.087.342-.903-.043-.239.105-.25.315-.129.017.167-.007.254-.099.443-.078.157-.145.291-.123.444 1.473.722 3.519 1.367 4.489-.562.17-.349.126-.719-.056-1.009-.18-.288-.479-.483-.882-.525-.409-.043-.714-.09-1.095.202 1.13.249.958 1.201-.16 1.333-.285.032-.795.099-1.007-.122.01-.033.041-.162.041-.162.837-.346.636-.561.765-1.412.049-.333.348-.586.241-1.045-.119-.567-1.853-1.247-2.657-1.372-.259-.045-.326-.421-.525-.563-.642-.476-1.901-.553-2.736-.566-.986-.018-.986.142-.809.401.241.363 1.703-.184 2.74.283zm.304 5.339c-.187-.004-.332-.05-.355-.141-.033-.099-.107-.182.038-.232.094-.036.343-.087.494-.048.275.06.007.424-.177.421zm.555.116c-.082-.037-.131-.208.063-.336.096.072.036.375-.063.336zm-.817-1.183c-.146-.01-.058-.389.276-.359.11.003.519.159.686.197.484.097-.767.052-.962.162zM23.261 14.748c-.601-.328-1.587-1.013-1.892-1.251-.23-.177-.772-.611-1.095-.849-.479-.378-1.028-1.138-.943-.725.172.579.451 1.175.843 1.756.394.565 1.083 1.162 1.693 1.571.378.25.952.515 1.271.827.271.269.565 1.088.647 1.491.697 3.323-1.005 5.918-2.219 7.818-.304.479-.743.946-.95 1.529-.428 1.235.184 2.936 1.714 2.339 1.38-.843.583-2.098 1.292-3.467.431-.84 1.124-.494 1.31-.925.127-.292.312-.773.503-1.174.405-.85 1.073-2.048 1.286-2.64.139-.294.301-1.847.21-2.195-.026-.102-.562-.364-.729-.484.629 1.997-.179 3.514-1.308 4.94-.272.341-.537.956-.614 1.238-.575.036-1.188.787-1.316 1.062-.396.782-.192 1.951-.586 2.717-.167.312-.826.558-1.09.162-.221-.329-.206-1.147-.038-1.533.284-.678.891-1.202 1.243-1.811.763-1.311 1.518-2.847 1.854-4.514.233-1.122.146-2.355-.118-3.526-.124-.519-.384-1.034-.586-1.496-.108-.245-.257-.652-.382-.86zM25.238 5.755c.404.407.528.369.319-.155-.071-.184.013-.423-.037-.53-.066-.128-.282-.192-.406-.283-.427-.299-.723-.934-.563-1.648.088-.382.118-.583.401-.483.197.067.572.511.689.688.424.639.275 1.05.311 1.643.02.453.114.95.534 1.541.068.099.298.323.282.199-.012-.117.077-.815.164-.928.104-.145.425-.748.483-1.208.066-.631-.146-1.208-.445-1.679-.441-.7-.715-.823-1.594-.783-.184.014-.566.015-.657.099a2.085 2.085 0 0 0-.651 1.919c.133.758.713 1.165 1.17 1.608z"/><path d="M24.229 6.944c1.127 1.013 2.46 1.838 3.828 2.663.628.378 1.818.995 1.978 1.028.102.047.417.162.646.272.239.143 3.554 1.407 3.92 1.52.46.145 1.089.556 1.118.504-.211-.69-.59-1.064-1.049-1.491-.475-.435-1.198-.796-1.9-.991-.609-.162-1.318-.5-2.012-.743-1.871-.657-3.481-1.771-4.954-2.88-.276-.204-.609-.565-.87-.787-.394-.327-.826-.657-1.066-1.128-.158-.293-.154-.848-.243-1.21-.266.324-.562.922-.648 1.331-.05.265-.05.413.192.744a9.17 9.17 0 0 0 1.06 1.168zM30.418 18.899c.608.015 1.74.067 2.878.202.385-.024-.933-.532-1.509-.729-.69-.229-1.392-.487-2.075-.726-1.203-.417-2.109-.762-3.324-1.186-.767-.271-1.185-.589-1.532-.809-.095-.059-.769-.616-.687-.32.102.259.203.363.418.785.808 1.878 3.661 2.717 5.831 2.783zM22.938 13.982c-.039-.299-.384-.881-.484-1.088-.184-.385-.221-.551-.318-.808-.234-.126-.704-.546-1.012-.767-.896-.641-1.532-1.674-2.017-2.213-.098.022-.188.842-.122 1.087.386 1.305 1.528 2.23 3.953 3.789zM84.812 9.809c-.049.432-.219 1.107-.237 1.431.143.201 2.247-2.094 2.412-2.883.068-.308-.303-.895-.482-1.146-.203.361-.385.758-.644 1.086-.982 1.224-1.006 1.099-1.049 1.512zM84.894 7.551c.035.285.056.631.083.951.075.145.882-1.222.948-1.354.305-.61-.098-.973-.549-1.229-.203.228-.354.541-.413.651-.157.236-.145.385-.069.981zM83.926 10.314c-2.009 1.901-6.423 3.665-7.881 4.189-1.654.603-3.275 1.356-4.858 2.06-.338.146-2.146 1.028-2.222 1.245-.045.146-.034 1.049-.034 1.049 1.645-.852 3.375-1.628 5-2.38 1.187-.542 2.579-.881 3.862-1.328a22.948 22.948 0 0 0 4.797-2.298c.567-.361.961-.783 1.152-1.271.171-.419.207-.91.184-1.266zM81.31 16.902a3.73 3.73 0 0 0 .884-1.67c-2.053 1.445-4.595 2.072-7.057 2.94-.817.289-2.74 1.03-2.176.929 1.673-.28 3.232-.018 4.576-.347 1.685-.403 2.832-.801 3.773-1.852zM84.812 6.241c.138-.292.424-.768-.407-.949-.25-.054-.265.11.051.489.141.163.158.634.356.46zM21.669 6.224c.104 0 .142-.251.178-.327.094-.193.229-.41.262-.521.026-.074-.016-.066-.055-.104-.013-.001-.566.084-.628.34-.037.164.053.619.243.612zM28.028 14.951c1.655.61 3.278 1.045 3.823 1.287.494.225 1.198.529 1.689.748 1.382.618 2.82 1.3 3.851 1.896.137.042.039-1.084-.323-1.292a38.06 38.06 0 0 0-3.009-1.511c-1.094-.487-2.271-.958-3.379-1.457-.509-.222-.946-.368-1.46-.561a28.249 28.249 0 0 1-1.228-.512c-2.93-1.048-4.53-2.439-4.964-2.73-.097-.074-.455-.423-.575-.465-.067.013-.013.452 0 .522.129.697.313 1.046.687 1.449.426.464 1.211.878 1.896 1.25a20.046 20.046 0 0 0 2.992 1.376zM21.389 8.438c.088-.228.094-.615.141-1.112.034-.577-.099-.82-.281-1.078-.13-.182-.158-.373-.285-.328-.194.14-.578.407-.605.687-.028.267.178.672.341.955.16.277.62.917.689.876z"/><path d="M80.903 23.79c.346.728.537 1.255.566 1.275.127.089.328.064.483.12.339.142.695.479.844.803.507 1.145.036 3.198 1.492 3.432.549.084.956-.143 1.206-.364.296-.265.445-.887.363-1.512-.349-1.274-1.021-1.844-1.503-2.664-1.184-1.669-2.956-5.836-1.233-8.644.292-.485 1.09-.721 1.57-1.046.497-.343 1.019-.875 1.41-1.332.208-.243 1.146-1.764.847-2.017a24.347 24.347 0 0 1-2.66 2.176c-.354.249-.947.438-1.21.769-.289.36-.366.874-.563 1.33-1.487 3.314.031 7.419 1.731 9.672.299.395 1.649 2.231.646 2.865-.314.195-.807-.048-.927-.287-.351-.671-.19-1.933-.523-2.7-.143-.305-.539-.788-.854-.924-.122-.055-.252-.033-.379-.111-.136-.09-.302-.548-.452-.769-.492-.773-1.254-1.653-1.629-2.793a3.91 3.91 0 0 1-.118-2.092c.037-.165.139-.359.209-.521.146-.183-.857.307-.852.585.013.522.088 1.141.146 1.671.07.721.844 1.949 1.39 3.078zM19.728 9.084c.523.776 1.521 1.772 2.044 2.113 0 .013-.091-.482-.177-1.024-.034-.219-.02-.455-.186-.784-.287-.426-1.195-1.232-1.453-2.14-.227-.179-.6.834-.585 1.129.04.172.204.48.357.706zM79.092 5.032c.13.37.529.814.479 1.253-.057.474.069.646.406.157.858-1.282.062-1.981.78-3.041.245-.363.688-.979.942-.625.251.834.136 1.385-.099 1.685-.294.384-.767.456-.784 1.153-.01.322-.059.501.119.426.334-.335.925-.844 1.211-1.351.354-.625.071-2.092-.381-2.376-.235-.148-.837-.246-1.309-.186-.448.064-.661.337-.931.686-.391.518-.773 1.316-.433 2.219z"/><path d="M80.441 6.944a22.134 22.134 0 0 1-4.896 2.803c-1.293.532-2.582.735-3.627 1.492-.547.396-1.521 1.766-1.295 1.733 1.88-.886 4.021-1.584 5.928-2.437 2.233-1.002 4.093-2.337 5.844-3.812.321-.274.955-.944 1.008-1.287.087-.583-.363-1.394-.605-1.736-.198.084-.042.979-.364 1.369-.309.378-1.614 1.587-1.993 1.875zM46.194 8.234l1.99-.799-1.99-.798-1.991.798zM83.967 12.648c-.208.464-.357.883-.566 1.334-.009.244 3.449-2.059 3.868-3.445.112-.364.066-1.079-.038-1.43-.358.469-.776 1.051-1.168 1.489-.919 1.005-1.703 1.17-2.096 2.052zM82.112 9.748c-3.05 1.913-6.524 3.487-10.157 4.8-.477.172-2.413 1.092-2.479 1.231-.161.363-.297.873-.285 1.283.757-.44 2.182-1.142 3.286-1.588 3.426-1.384 7.071-2.483 9.873-4.474.569-.403 1.223-.768 1.619-1.33.27-.397.146-1.195 0-1.61-.594.553-1.163 1.249-1.857 1.688z"/><path d="M81.503 8.033c-.513.366-2.912 1.944-4.115 2.552-1.529.772-3.233 1.375-4.729 1.884-.809.274-2.477 1.122-2.532 1.37-.104.354-.306.813-.354 1.153 1.922-.897 2.405-1.033 4.457-1.757.754-.271 2.276-.949 2.539-1.07 1.364-.617 2.651-1.392 3.689-1.933 1.605-.788 3.031-2.133 3.36-2.901.199-.471.041-.952-.101-1.366-.043.082-1.085 1.28-2.214 2.068zM53.01 6.442c-.792.056-1.585.192-2.099.521-.32.202-.32.583-.32.565.047.233.483.454.685.529 1.154.408 2.992.333 3.99-.163.271-.141.693-.381.402-.807-.3-.445-1.808-.708-2.658-.645zm2.052 1.102c-.241.235-.975.395-1.812.354-1.021-.038-1.909-.12-1.935-.445-.01-.104.133-.208.358-.293.387-.144 1.028-.249 1.614-.228.821.021 1.821.099 1.854.437.004.06-.023.121-.079.175zM74.732 8.135c.021-.152-.043-.286-.119-.443-.094-.189-.116-.276-.096-.443.206-.121.354-.11.317.129-.135.99.362.284.331.903-.005.514-.435.028-.554.34-.116.311-.244.914-.036 1.086.316.036.385-.089.38-.318-.009-.153.005-.319.099-.406.913-.028 2.357-.294 2.136-1.408-.077-.392-.306-.687-.359-1.048-.046-.302.005-.487-.038-.685-.201.153-.353.399-.568.521-.641.37-3.006.993-3.102-.077-.046-.509.24-.487.438-.767-1.116-.123-.335-.8.047-1.008 1.415-.773 2.535-.406 2.656.359.166-.442.764-.655 1.17-.889-.973-.016-2.551-.292-1.049-.964 1.035-.467 2.497.08 2.746-.286.169-.26.169-.419-.811-.4-.844.014-2.098.092-2.737.566-.202.144-.271.52-.528.563-.804.125-2.536.805-2.657 1.372-.106.458.194.712.242 1.045.124.852-.076 1.066.764 1.412 0 0 .03.129.043.162-.214.221-.725.154-1.008.122-1.12-.132-1.296-1.084-.169-1.333-.374-.292-.683-.269-1.082-.202-.399.063-.707.238-.887.525-.181.29-.229.684-.061 1.029.985 1.852 3.027 1.266 4.492.543zm.793.338c-.098.039-.159-.265-.061-.336.192.128.146.299.061.336zm.911-.256c-.024.091-.172.137-.351.141-.185.002-.456-.362-.182-.423.151-.039.399.012.492.048.149.052.08.135.041.234zM75.38 7.128c.169-.038.577-.194.684-.197.336-.029.42.35.28.359-.201-.11-1.445-.065-.964-.162zM60.092 8.234l1.989-.799-1.989-.798-1.993.798z"/><path d="M35.793 8.782c-.242.422-.08.882-.036 1.412a3.787 3.787 0 0 0-.924.888c.061.061.196.261.277.275.18.037.259-.094.324-.161.216-.171.766-.71.906-.862.133-.148.016-.395-.034-.57-.195-.755.278-.908.497-.948.359-.058.565.05.807-.235.109-.135.023-.348.039-.487.07-.674.839-.715 1.29-.4.269.188.632.227.923-.053.336-.325.908-.232 1.179.295-.531.123-.817.4-.814.764-.381-.151-.599-.09-.844 0-.426.155-.605.457-.841.804-.144-.014-.307-.066-.484-.032-.428.057-.841.5-.809.883.038.434.391.695.643.926.52.467-.298.282-.441.683-.13.376.199.842-.261.808-.379-.033-.574-.646-.827-.48-.049.128-.146.82.04.746.263-.129.477.151.724.18.376.032.582-.104.766-.104.175-.004.446.171.661.232.211.061.644-.018.729-.027h-.003c1.345-.617.316-1.323.316-1.323s-.176-.176-.418-.338c0 0 1.059.213.512-.677l.126.046.333.126.119.046c.058.034.129.075.203.124l.169.104c.004.002.006.004.006.007.072.043.132.07.179.088.012.002.022.008.036.012l.043.014.022.003h.006l.026.002h.004l.008.001H41l.028-.003a.228.228 0 0 0 .112-.05l.002-.003.01-.008c.016-.017.032-.04.051-.066v-.005c.028-.056.049-.121.062-.166.006-.02.007-.038.01-.058.002-.002.002-.007.002-.018l.002-.01.003-.091.001-.271-.049-.369v-.004l-.003-.013v-.006l-.001-.035a2.087 2.087 0 0 0-.073-.464c.601.004.632.586.887.483.146-.131.238-.465.327-.808h.002c0-.275-.091-.545-.186-.751h-.002s-.386-.562-.443-.748c-.071-.197-.071-.406-.21-.584-.112-.129-.478-.399-.492-.576-.034-.354-.04-1.1.18-1.116 4.262-.041 19.497-.11 23.198-.103.523.003.854.2.843.246.012.218.13.737.045 1.006-.057.164-.391.332-.485.487-.13.2-.194.74-.319.967l-.006.01a3.037 3.037 0 0 1-.289.406h-1.27c-.051 0-.104.004-.158.004h1.428c-.237.389-.253.637-.243.753h.004s.041.271.129.561v-.001c.039.105.099.188.193.219.239.036.605-.502 1.22-.456-.028.39-.117 1.593.24 1.527.263-.051.559-.469.815-.358-.169.225-.097.388 0 .486V11.57c.01 0 .146.245.813.213 0 0-1.602 1.097-.06 1.624.39-.06.75-.229 1.046-.271.411-.062.577.112.93.035.281-.06.755-.06.808-.357.035-.239-.155-.472-.204-.604-.396.233-.642.736-.966.521.164-.425-.027-1.07-.482-1.129-.499-.061.661-.591.643-1.368-.007-.411-.455-.879-1.248-.729-.185-.263-.435-.655-.729-.804-.257-.13-.667-.055-.925 0-.228-.389-.402-.545-.85-.728-.058.134.161-.838 1.011-.443.168.081.273.285.481.326.623.116.937-.616 1.574-.242l.041.038c.074.062.37.519.24.929.276.463.654.078 1.049.278l.037.044c.67.524 0 .827.156 1.412.088.287.736.61.933.847.327.385.76.077.525-.244-.166-.237-.745-.521-.804-.806-.056-.229.141-.413.162-.563.093-.935-.62-1.267-1.454-1.333-.198-.641-.328-1.02-.931-1.25-.816-.309-.895.173-1.325.202 0 0-.951-.333-1.011-.359-.122-.066-.16-1.507-.24-1.692.808-.354 1.888-1.162 2.056-2.096.095-.515.038-1.368 0-1.853-.608.08-1.521-.099-2.137.08-1.23.347-.114 2.988-1.81 3.184-.734.083-1.104-.365-1.337-.805-.6-1.154.282-2.101.367-2.5C62.436 1.081 59.01 1 57.685 1c-.016.078.656 1.271.176 2.425-.248.59-1.265 1.61-2.322.318-.356-.446-.438-1.184-.315-1.86.067-.337.247-.439.323-.883-1.148.018-3.625-.007-4.796.042.094.362.286.58.362.93.235 1.127-.312 2.326-1.251 2.417-1.025.096-1.695-1.081-1.566-2.137.044-.437.217-.765.275-1.209-1.68.059-3.469.039-5.077.082.132.834.896 1.669.142 2.782-.541.795-2.075.886-2.216-.73-.053-.658-.104-1.431-.689-1.949-.716-.021-1.467.037-2.156.037-.442 2.432.52 2.771 1.854 3.851v1.652c-.289.095-.886.444-1.166.399-.113-.014-.506-.572-1.35-.148-.494.247-.765.797-.867 1.239-.491.007-1.025.137-1.253.524zm2.016 1.489c.055-.045.09-.141.167-.16.479-.142 1.031.438 1.088.723.008.048 0 .248 0 .248-.459.122-1.322-.25-1.255-.811zm1.01 2.579c-.257.004-.687-.097-.812-.218-.223-.215-.229-.571.248-.627.318-.042.742.26.88.504.108.19.034.337-.316.341zm1.574-2.217c-.356-.142-.977-.308-1.128-.642-.106-.232.062-.47.118-.487.573-.178 1.269.918 1.01 1.129zm.685-1.972c.464-.199.74.401.648.686-.308-.001-.945-.31-.648-.686zm26.361 4.189c-.747-.033.183-.833.563-.845.913-.028.362.892-.563.845zm.644-2.739c.946-.126.18.911-.441.971-.791.068.121-.924.441-.971zm-1.45-.607c.151-.029.238.024.36.043.23.581-.354.85-.845 1.05l-.162-.04c.048-.429.29-.977.647-1.053zm-1.414-.36c-.104.075-.376.165-.48.202l-.162-.08c.067-.261.156-.559.406-.605.392-.072.456.316.236.483zm.576-6.664c.147-.213.374-.357.75-.354.784.015.408.978.438.883-.046.129-.125.255-.197.376a3.584 3.584 0 0 1-1.238 1c.108-.559.028-1.375.247-1.905zm-6.986.538c.035-.571-.149-.792.083-1.211.951 0 2.903-.115 2.819.205-.438 1.65.164 2.478.891 3.021-1.648.039-1.808-.563-1.892-1.493-.306-.167-.601-.131-1.05-.078-.41 1.027-.188 1.589-1.974 1.515-.588.085 1.044-.48 1.123-1.959zm-6.849.157c.058-.432-.031-.901-.086-1.244.012-.196 2.564-.264 2.545-.125-.286 2.333.884 2.848 1.293 3.187-1.3.124-1.888-.139-2.101-1.413-.445 0-.603-.017-.926.044-.122 1.301-.674 1.472-1.976 1.369.578-.438 1.126-.93 1.251-1.818zm-7.396-1.308c.191 0 2.451-.061 2.986-.061-.085.686-.085 2.504 1.223 3.148-1.696.142-1.62-.255-2.093-1.494-.222.007-.57 0-.946.039-.296 1.188-.141 1.6-2.035 1.532.747-.798 1.439-1.165.865-3.164zm-5.218.104c.248 0 .648-.04.88 0 .658.462.189 1.75.672 2.52-1.056-.579-2.068-1.79-1.552-2.52z"/><path d="M90.977 39.935c-.428.537-1.481.927-2.295.927.054-1.047-.796-1.447-1.049-2.255-.191-.623.171-1.165.24-1.572.128-.721-.492-.714-.644-1.124-.095-.258.044-.696 0-.93-.037-.181-.405-.361-.89-.564-.847.726-1.573.755-2.214.444-.152-.079-.376-.256-.411-.444-.09-.723.553-1.607.771-2.136.158-.382.166-.911.281-1.29 1.597-.306 2.54-1.416 2.302-3.292-.063-.528-.317-1.021-.532-1.399a30.01 30.01 0 0 0-.814-1.312c-.616-.848-1.196-1.676-1.637-2.661-.818-1.852-.724-4.705.318-6.207.019-.028.514-.557.288-.522-.163.016-.538.262-.688.363-.5.333-.797 1.199-.927 1.892-.065.356-.103.715-.144 1.042-.04.348.019.84.06 1.136.229 1.623.693 2.517 1.283 3.689.692 1.362 2.554 2.947 2.33 5.108-.229 1.415-1.647 1.648-2.893 1.562.102.603.201 1.364.094 2.054-.127.673-.672 1.283-.529 2.218 0 0 .163 1.733 3.264.646.12.522.204.874.442 1.165.396.492.34-.148.083.932-.116.479 0 1.106.12 1.448.209.598.596 1.009.756 1.623-.021-.006-.023.479-.271 1.078-.736-.059-1.89-.062-2.379.242-.639.394-.196.885-.891.928-.157 0-.115-.305-.195-.442-.272-.479-.809-.568-1.412-.728.116-1.078.055-1.229-.486-1.893.428-.271.845-.171 1.286.079.321.177.489.335.854.48.158-.399-.009-1.1.202-1.567.347-.798.447-1.083.04-1.13-.846-.105-1.352-.232-1.738-.93-.732-1.332-.181-.946-1.086-.564-2.032.85-2.775-.075-3.387-.564-.277-.295-.487-.714-.649-1.221-.319-.997-.397-2.316-.278-3.533.106-1.047.48-2.434.24-3.79-.103-.594-.556-1.371-1.043-1.608-.461-.229-1.062-.21-1.572-.365-1.328-.394-2.415-1.977-1.732-3.466.515-1.127 1.771-1.655 1.771-2.098a6.9 6.9 0 0 0-.887.044c-.559.924-3.367 2.942-4.193 3.466.496.787.029 1.454.083 1.292-.846-.949-1.371.528-1.732.396-.203-1.058-.342-1.115-1.17-1.612.143-.681.462-1.239-.027-1.757l.008-.235c.075-.28.102-.594.102-.987.376-.14 1.244.905 1.374.785.855-.337 1.828-1.185 3.746-1.957 1.233-.5 2.499-.997 3.746-1.449 2.021-.732 5.392-1.682 6.448-3.185.226-.316.282-.688.409-1.086-.074-.103-1.491.948-2.94 1.609-1.203.544-3.322 1.149-4.479 1.592-1.611.609-3.263 1.222-4.754 1.954-1.144.558-1.619.965-1.939 1.146-.377.222.075.447-.235.589-.358-.401-.998-.653-1.453-.766v.006h-.048c-.45.023-.707.1-.707.1v-.097c0 .004 0 .006-.005.008v.089s-.07.047-.177.115c-.243.18-.676.387-.836.623-.17.311-.192.811-.089.959.098.142.428.161.53.169-.377.298-.777.787-.849 1.374-.161 1.396 1.192.542 1.29.921.166.639-.291 1.06-.2 1.776.018.143.131.279.218.4a.281.281 0 0 0 .116.065c.591.054.753-.097.753-.097.806-.5.551-.323.728-.447.688.045.288.592.12.727-.104.081-.642.3-.199.405.666.077.96.279 1.811-.288.602-.396 1.136-1.357 1.173-2.294.025-.003-.059-.643-.037-.68.015-.062 1.777-1.408 1.812-1.374.199.198-.452 2.255.925 3.541.871.826-1.069-.33-3.384.728-1.058.486-1.722 1.184-2.26 2.179-1.094 2.041.298 3.648 1.818 4.354-.032.783.068.752-.124.888-.179.104-.41.041-.606.121-1.108.424-.858 1.336-1.494 1.169-.845-.226-1.274-1.422-2.423-1.256-.493.079-.637.455-1.019.653-.267.14-.349.11-.259-.011-.389.271-1.492.988-3.315 1.678.324-.086.654-.153.971-.177.232-.023.855-.055 1.051.118.136.12.197.638.366.647 0 0 1.191-.811.883 0-.205.186-1.27.494-.649 1.852.877.525 1.745 1.099 2.385 2.018.943 1.354.537 2.982-.688 3.743.61-1.768-.072-3.52-1.895-3.827-.901-.152-1.731-.141-2.456-.439-.969-.416-1.66-1.146-2.543-1.614-.699-.371-1.568-.54-2.291-.887 0 0-2.979.431-5.46-.035.1.026.243.036.342.062-.977.354-2.037.669-2.87 1.181-.679.424-1.285 1.015-2.086 1.331-.731.285-1.536.202-2.386.401-1.731.412-2.549 1.924-1.896 3.827-1.099-.667-1.551-2.245-.805-3.582.562-1.003 1.67-1.64 2.661-2.212a.734.734 0 0 0 .039-.255c.062-.663-.03-.736-.077-.918-.113-.195-.346-.545-.771-.646-.006-.146-.099-.247.047-.322.198-.126.443.168.639.238.592.192.413-.663.971-.683.676-.021 1.273.099 1.832.271a19.803 19.803 0 0 1-3.194-1.688 10.876 10.876 0 0 0-.691-.072c-.044-.286-.502-.729-1.252-.653-.836.09-1.166 1.166-2.418 1.256-.451-.764-.779-1.193-1.733-1.256-.101-.139-.24-.705-.122-.922-.067.127 1.069-.583 1.532-1.088 1.908-2.072-.375-4.925-2.136-5.565-.99-.354-2.195-.236-3.347-.32.746-1.187 1.258-1.952.971-3.866.327.149 1.78 1.1 1.896 1.372.111.276-.037.738 0 1.005.101.771.66 1.742 1.289 2.135.539.341 1.438.411 1.891 0-.532-.173-.873-.729-.357-1.006.137.097.248.191.4.282.107.064.392.196.662.263.042 0 .648-.008.845-.236v.002c.105-.178.112-.457.112-.502v-.011c-.002-.026-.003-.051-.007-.076l-.015-.11c-.003-.021-.008-.044-.01-.067a5.34 5.34 0 0 1-.024-.131c-.006-.032-.01-.062-.018-.092-.034-.182-.074-.375-.102-.571v-.007l-.001-.016c-.006-.059-.014-.123-.019-.182l-.003-.086c-.002-.044-.002-.083-.002-.118 0-.032 0-.059.002-.083v-.042c.021.013.042.022.06.035.264.13.451.142.451.142a.624.624 0 0 0 .349-.056.406.406 0 0 0 .148-.121c.008-.008.019-.019.021-.029.005-.001.005-.006.008-.007a.556.556 0 0 0 .088-.196l.017-.063v-.002c.003-.018.004-.033.01-.052.007-.036.009-.079.012-.123v-.021a2 2 0 0 0-.021-.325c-.004-.03-.008-.063-.015-.092-.002-.01-.002-.027-.003-.04-.005-.013-.005-.021-.007-.027-.003-.008-.005-.013-.005-.018a.344.344 0 0 0-.002-.02c0-.011-.006-.019-.011-.028v-.017c0-.002 0-.004-.002-.005-.012-.045-.023-.087-.036-.124a1.172 1.172 0 0 0-.079-.182c0-.004-.002-.007-.005-.013-.034-.062-.07-.116-.108-.176-.008-.011-.013-.021-.013-.021-.049-.097-.26-.301-.32-.356-.021-.019-.039-.034-.058-.054-.002-.002-.004-.008-.008-.009-.01-.009-.016-.021-.027-.029a.063.063 0 0 0-.016-.018c-.002-.006-.01-.012-.014-.021-.007-.013-.021-.025-.025-.035-.005-.011-.005-.018-.01-.025-.004-.003-.006-.011-.011-.02-.002-.007-.007-.014-.011-.02-.017-.052-.006-.085-.006-.085.169.025.303.025.396-.012.015-.003.021-.01.035-.014.009-.002.014-.003.016-.009a.082.082 0 0 0 .019-.006c.002-.006.008-.008.011-.012.012-.004.022-.019.029-.026a.257.257 0 0 0 .07-.122c.006-.016.012-.03.017-.048.003-.031.007-.066.007-.101v-.016-.014a1.663 1.663 0 0 0-.022-.257c-.002-.02-.006-.035-.008-.058a1.752 1.752 0 0 0-.034-.136c-.004-.01-.006-.021-.012-.033l-.002-.004c-.006-.01-.008-.021-.014-.034l-.009-.021a1.016 1.016 0 0 0-.06-.103 1.265 1.265 0 0 0-.188-.224c-.002-.008-.008-.01-.016-.015-.043-.044-.099-.088-.146-.125a4.132 4.132 0 0 0-.454-.293c-.006-.002-.009-.002-.009-.007a2.826 2.826 0 0 0-.739-.11 2.591 2.591 0 0 0-.823.113c-.378.139-.641.383-.846.56-.111.079-.21 0-.143-.423.031-.209-1.17-.793-1.473-.95-1.056-.559-1.91-.993-2.953-1.431a57.947 57.947 0 0 0-2.646-1.008c-1.237-.439-2.535-.738-3.706-1.271a23.624 23.624 0 0 1-2.127-1.084c-.828-.488-1.397-.907-1.303-.727.097.273.191.741.468 1.129.301.422 1.184 1.042 1.648 1.309 1.078.596 2.697 1.14 4.335 1.672 1.504.492 3.045 1.13 4.472 1.775.786.352 1.567.818 2.338 1.249.263.143.843.559 1.17.543.116-.007.411-.388.571-.499.161-.104.416-.271.535-.326.37-.172-.084.315.264 1.164-.076.076-.146.195-.202.284-.311.447-.008 1.122.158 1.57-.514.224-.796.432-.974.813-.308.67.011.992-.581.6-.341-.229-.313-.618-.965-.424-.312.085-.409.375-.523-.322-.033-.21.129-.557.186-.78-1.227-.872-2.569-1.743-3.591-2.826-.433-.461-.354-.761-1.531-.646 1.812 1.448 2.214 2.231 2.055 3.427-.064.52-.441 1.033-.764 1.331-.203.184-.521.578-.766.688-.911.396-2.012.197-2.537.965-.936 1.37-.327 3.721-.2 5.359.073 1.022-.021 2.023-.258 2.855a4.574 4.574 0 0 1-.427 1.021c-.634 1.023-1.924 1.739-3.508 1.086-.29-.12-.438-.307-.808-.445-.358.864-.634 1.21-1.166 1.572-.434.282-1.214.181-1.25.362-.09.372.172.685.24.927.122.439.236 1.33.08 1.552.109.104.198.166.324.079.393-.273.976-.921 1.733-.702.139.038.302.079.242.202-.671.712-.671.865-.486 1.81-.255.278-.513.047-.945.325a1.19 1.19 0 0 0-.589.841c-.032.167-.322.125-.322.125-.146-.179-.169-.356-.276-.604a.744.744 0 0 0-.508-.433c-.631-.183-1.662-.338-2.236-.132-.146.035-.347-.729-.281-1.172.036-.294.195-.546.281-.683.065-.089.535-.783.603-1.47.032-.288.021-.738-.036-.89-.049-.117-.34-.604-.205-.682.507-.356.638-.758.768-1.438.332.069.555.175.804.245.962.281 2.286.176 2.42-.809.096-.652-.141-1.191-.28-1.611-.265-.798-.359-1.898-.077-2.78-1.443.32-2.899-.277-2.905-2.139-.009-1.434 1.052-2.376 1.614-3.301.571-.956 1.393-2.35 1.792-3.663.349-1.156.394-3.448-.425-4.849-.223-.372-.643-.528-1.051-.716.241.472.591.86.767 1.367a7.163 7.163 0 0 1 .09 4.404c-.499 1.639-1.519 2.779-2.305 4.142-.435.743-1.141 1.602-1.009 2.864.159 1.557 1.038 2.229 2.419 2.576 0 .548.18.943.321 1.327.169.451.736 1.596.604 2.18 0 0-.162.542-1.089.503-.957-.039-1.362-.614-1.489-.623-.143-.015-.514.282-.626.343-.37.188-.145.387-.157.828-.014.143-.147.485-.305.579-.313.193-.605.505-.404.907.167.338.318.766.244 1.331-.096.648-.562.96-.848 1.437-.455.735-.055 1.016-.327 1.061-.542.029-1.308-.274-1.771-.602-.223-.162-.631-.512-.483 0 .182.631.432 1.203.644 1.65.747 1.381 2.8 3.571 6.97 3.358.912-.011 2.453-.358 3.349-.758.225-.141.503 1.145.809.953.425-1.953 2.377-2.275 4.418-2.543.205-.03.405-.055.601-.079.68-.092.734-.285 1.352-.447.477 1.021.977 1.682 1.774 1.893 1.296.359.755-.072.659-.406-.208-.707-.175-1.47.507-2.007.537-.431 2.375-.896 3.267-.688-.166 1.438.39 2.228 1.249 2.861.188.14.411.372.679.419.08.014.236-.016.245-.016.025-.361-.224-.723-.277-1.169-.186-1.474.861-1.945 1.932-2.217.546-.142 1.49-.223 2.099-.082-.123 1.108.161 2.117.685 2.782.054-.354.104-.826.283-1.092.506-.762 1.667-1.698 2.817-1.774 1.072-.064 2.143.201 2.986.365.084.021.169.021.253.028v.008c.029.002.056 0 .08.002.058.008.114.016.174.017l.045.015c.84.036 1.595-.242 2.387-.391 1.88-.349 3.677.525 4.434 1.773.139.25.144.263.232.592l.134.42c.479-.766.562-1.592.562-2.785.623-.158 1.679-.05 2.338.122 1.444.37 2.156 1.541 1.372 3.104.017.004-.226.376.325.28 1.206-.21 2.076-1.893 1.896-3.266.15-.036.456-.113.723-.077 1.51.177 3.615.749 3.061 2.578l-.199.765c1.595.091 2.38-1.412 2.623-1.971.097-.294.215.045.936.289v.003c.053.016.105.025.153.041.021.005.041.014.065.021v-.006c.134.038.282.069.462.093 2.151.277 4.397.413 4.788 2.621.424-.205.536-.597.772-.969 1.902.885 5.27.956 7.327.09 1.103-.428 2.108-1.354 2.782-2.229.271-.343.542-.854.688-1.291.047-.169.371-1.038.189-1.201zM66.028 20.23c.092-.066.238-.182.362-.203.587-.105.52.271.481.562-.374-.049-1.402.031-.843-.359zm-.28 2.703c-.292-.489.185-1.158.722-1.252.118-.022.32.035.363.041 0 0 .036.21 0 .317-.133.382-.694.756-1.085.894zm1.29 2.213c-.604.062.021-1.153.23-1.21.877-.226.455 1.141-.23 1.21zm1.976.608c.026-.285.163-1.203.562-1.214.081-.001.166.076.199.124.374.509-.417.957-.761 1.09zm-28.502-3.552c.167.233.271.645.12.731-.145.095-1.013-.451-1.198-1-.078-.243.074-.252.208-.252.497.066.642.207.87.521zm-.969-2.175c.665-.13.943.36.925.446.014.269-.406-.121-.748.06-.432.24-.408-.321-.177-.506zm-.724 3.909c.46-.07.862 1.148.725 1.21-.576.242-1.467-1.094-.725-1.21zm-2.177.604c.288-.005.394.172.482.404.247.628.292.9-.043.772-.181-.068-.551-.389-.612-.717-.037-.168.024-.383.173-.459zm6.126 13.14a5.29 5.29 0 0 0-1.128-.441c.039-.165.021-.188.087-.279.022-.051.097-.15.157-.168.68-.157.846.487.884.888zm-1.128-2.819c.028-.125.309-.271.444-.278.653-.078 1.095.512.969 1.004-.426-.174-.798-.272-1.25-.161-.062-.127-.22-.32-.163-.565zm-11.848-9.032c.379-.359.725.029 2.538-.803-.581.472-1.777 1.127-1.772 1.17.282 2.117-2.535 1.306-.766-.367zm.321 2.135c.687-.173.863-.729 1.33-1.084.532-.412 1.321-.746 2.181-.808 1.422-.107 2.434.478 3.201 1.028 1.798 1.282 1.317 4.613-1.105 4.982 0 .206-.048 1.451.403 1.808.221.022.619-.086 1.168.364.676.558.429.843.686 1.05.688.553 1.87-.667 2.215-.928.168-.122.619-.319.889-.207.038.021.061.152.077.171-.077.101-.134.146-.199.278-.187.356-.16.795.058.989.295.265.581.383.507.578-.014.118-.221.25-.438.444-.261.236-.096.809-.287.77-2.153.2-2.826-1.47-4.52-1.535.325.494.224.634.124 1.011-.502-.105-.947-.075-1.29.158-.285.188-.347.486-.403.812-.807-.207-1.159-.469-1.535-1.092-1.256-2.124.639-3.154.531-5.441 0 0 .075-1.008-.442-1.008-.528 0-1.387.246-2.222 0-.542-.163-1.762-.573-1.974-1.451-.395-1.605.247-.686 1.045-.889zm5.943 10.522c-.424-.039-.667-.271-.687-.563-.051-.588.812-.676.8-.272-.005.173.135.327.274.491.268.299-.084.365-.387.344zm-13.761.889c-.085-.383-.268-1.121-.062-1.309.29-.079.805-.291 1.068-.526.35-.312.472-.382.708-.904.034-.086.081-.229.14-.285 2.302 1.291 4.437.194 5.158-1.898l.002.002a.55.55 0 0 0 .024-.083v-.002c.036-.104.068-.205.095-.311.299-1.229.05-2.796-.121-3.914.473.114.58.436.97.604.823.354 1.922.36 2.857.36.101.246.077.354.038.604-.013.091-.03.246-.038.281-.01.052-.041.124-.041.124-.028.153-.199.684-.199.684-.497 1.445-1.434 2.765-.285 4.231.109.146.25.284.041.443-.091.074-.269.128-.366.162-.411.146-.854.305-1.325.41-.856.202-1.809.263-2.903-.129-.375-.136-.549-.413-.966-.563-.146.495.152 1.517.04 1.574-.525.285-.951.257-1.528.407-.186.042-.421.149-.669.143-.186-.317-.366-.543-.784-.71-.546-.226-1.304.27-1.854.605zm3.245 2.236c-.014 0-.087.104-.104.104-.139 0-.413-.466-.604-.472-.422-.015-.823.043-.684-.54a.975.975 0 0 1 .198-.239c.67-.214 1.174.849 1.194 1.147zm-2.701.806c.477-.32 1.407.971.743 1.478-.205.137-.153-.263-.442-.566-.328-.341-.66-.665-.301-.912zm-3.608-.385c.333-.12.823.034.768.167-.417.377-.498.554-.563 1.16-.203.049-.854-1.077-.205-1.327zm5.218 2.359c-1.209.718-3.574.399-4.482.056-2.354-.896-3.67-2.651-3.757-3.336.006-.144.815.297 1.169.322.793.05.932.473 1.023.563.118.227.011.712.187 1.006.271.53.632.87 1.268.906.054-.254-.073-.442.319-1.007.495-.695.755.028.948.179.187.119.297.337 1.002.4.495.042.928.238 1.137 1.134.238.074 1.233-.92.843-1.692-.155-.323-.194-.636-.015-.944.085-.157.672-.253.957.216.225.367.227.467.454.202.609-.86.494-1.766-.093-2.282-.366-.192.405-.389.98-.455.334-.034 1.339.131 1.905.486.309.216 1.115.299.708.521-.475.227-1.551.958-1.924 1.438-1.01 1.314-2.002 1.92-2.629 2.287zm8.244-2.799c-.408.209-.84.331-1.334.413a9.541 9.541 0 0 1-.802.108c-1.671.178-2.723.818-3.604 2.661-.087.166-.75-1.188.589-2.672.771-.863 2.669-1.376 3.593-1.89.028-.009.048-.021.069-.031h-.069c-1.783.07-3.339-.559-3.683-2.139.691.517 1.524.692 2.66.806.307.032.595-.002.886-.068v.003c.012-.003.023-.004.039-.012h.034v-.007c.498-.112.992-.302 1.539-.417 1.116-.231 2.224-.133 2.667.424.343.428-.223.49-.483.685-.822.586-1.184 1.655-2.101 2.136zm2.656.404c-.251.904-.199 1.156.031 1.578.241.424.301.679-.277.333-1.694-.999-1.496-3.09.131-4.31.921-.69 2.014-.79 2.334-1.027.03-.113-.516-.406-.662-.664-.21-.372-.112-.868.383-.946.551-.102 1.016.354 1.307.536.499.319 2.262 1.284 2.988.646.434-.382 1.017-.107.83.069-1.226.405-1.527 1.235-2.462 1.604-1.534.539-4.171.674-4.603 2.181zm24.79.358c-1.338-1.229-2.232-2.337-5.039-2.136-.504.038-.834.053-1.326.258-.348.167-.579.182-.912.131-.208-.042-.458-.109-.802-.201-1.783-.491-3.653.073-4.295.485-.371.231-1.171.838-1.344 1.111-.059.062-.105.127-.26.298-.071-.133-.099-.298-.032-.987.148-.99 1.063-1.899 1.683-2.381 1.18-.923 2.729-1.232 4.668-1.405.131-.01.454-.015.589-.029.516-.03.968-.058 1.392.016 2.318.318 4.561 1.263 5.483 3.229.207.471.322 1.036.195 1.611zm26.525-.279c.953-.107.61.896.365 1.253-.029.031-.101.088-.134.089-.038.002-.027-.062-.032-.089-.006-.253.017-.466-.081-.65-.089-.177-.318-.327-.44-.521.096-.017.247-.076.322-.082zm-3.421.362c.919-.1-.42 1.411-.446 1.456-.282-.475-.26-1.383.446-1.456zm-1.049-6.003c.327.707.657 1.215 1.402 1.487.172.064.406.145.57.21-.071.369-.093.846-.161 1.203-.654-.344-1.618-.865-2.34-.242a2.23 2.23 0 0 0-.355.442c-.346-.089-2.088-.465-2.145-.647-.09-.309.204-1.053.04-1.529-.413.156-.586.421-.958.563-1.038.396-2.414.327-3.521-.012-.458-.136-.881-.325-1.201-.553.358-.767.986-1.309.725-2.456-.264-1.159-1.445-2.356-1.047-3.709.682-.157 1.537-.013 2.261-.202.613-.165.942-.589 1.365-.767l.085-.043c.141 0-.057-.001.038.043 0 0 .107.123 0 .123-.059.375-.135.777-.161 1.164-.097 1.171.043 2.227.361 3.099l-.015.012c.015.034.039.067.046.104.017.024.021.057.028.087l.013-.005c.773 1.893 2.49 2.795 4.97 1.628zm-.929 4.999c-.362.479-.375.05-.402.079a.957.957 0 0 1 .84-1.008c.172-.025.379.02.409.119.26.827-.683.565-.847.81zm-6.211-15.925c1.031.281 1.674.172 1.979 1.175.066 0 .044.177.041.235a.616.616 0 0 1-.77.523c-.427-.1-.562-.659-.479-1.168-.519-.361-1.065-.707-1.573-1.088.294.094.552.256.802.323zM64.778 36.065c.042-.419.958-.419.604-1.405-.062-.177-.14-.241-.241-.368.41-.143.565-.145.933.086.311.205 2.023 1.758 2.414.682.218-.619.702-1.246 1.892-1.322.097-.286.255-1.322.279-1.505a2.933 2.933 0 0 1-2.229-2.858c-.062-1.799 1.798-3.221 3.81-3.301.921-.039 1.748.271 2.339.61.956.543.797 1.4 2.413 1.244.721-.069.171 1.179.043 1.37-.418.618-1.289.876-2.177 1.092-.82.188-1.814-.312-2.015.036-.754 1.318.628 3.601.686 4.835.05 1.128-.588 2.074-1.333 2.421-.342.167-.638.081-.603.081-.166-.855-.758-1.026-1.694-.886-.023-.089-.098-.171-.122-.36.008-.221.171-.47.244-.688-1.377.055-3.002 2.001-4.512 1.573-.219-.062-.126-.237-.167-.485-.062-.377-.596-.496-.564-.852zm5.522 2.424c-1.051.146-.033-1.073.042-1.088.787-.139.743.981-.042 1.088zm-7.057-2.903c-.042-.261-.038-.581.206-.765.135-.107.438-.239.646-.239s.528.134.562.319c.021.109-.065.342-.08.443-.515.034-.912.071-1.334.242zm.768 1.206c.266-.05.482.019.564.168.042.069.047.114.079.24-.415.127-.733.314-1.047.525-.122-.342-.042-.838.404-.933zm7.906 6.371c-.196.305-.565.825-1.007.842-.104-.001-.03-.178.036-.396.234-.508.19-1.079 0-1.577-.559-1.471-2.312-1.614-3.877-2.004-.592-.148-1.157-.444-1.619-.745-.516-.39-.877-.887-1.604-1.177.065-.07.326-.154.422-.145.269.041.413.25.63.323.886.305 2.366-.499 2.904-.808.284-.159.52-.487.931-.52.486-.044.873.274.723.767-.126.415-.529.515-.723.882.449.177.998.256 1.446.443 1.401.598 2.835 2.364 1.738 4.115zm7.491 1.527c-.44-.816-.979-1.569-1.771-2.057-.951-.568-2.521-.4-3.667-.841l-.061-.023c-1.168-.493-1.498-1.919-2.604-2.435-.777-.367-.373-.631.202-.847 1.224-.468 2.004-.194 2.827.071.008.008.012.008.019.01.037.01.079.022.123.037v-.004c.332.109.681.212 1.066.246.801.083 1.771-.027 2.375-.242.238-.08.568-.415.808-.441.241-.032.042.283.021.338-.621 1.208-1.97 1.766-3.772 1.643v.115c1.804.557 5.318 1.82 4.434 4.43zm3.388.085c-1.733-.284-3.206-2.292-3.991-3.1-.582-.602-1.679-.979-1.53-1.211.69-.271 1.376-.663 2.172-.769.634-.077 1.051.207 1.407.376-.144.133-.185.215-.28.393-.142.273-.224.822-.153 1.165.055.269.175.534.321.725.583.783.272-.462 1.049-.479.146-.009.385.04.443.122.487.646-.909 1.685.721 2.659.219-.266.343-.676.606-.889.26-.21.586-.122.969-.243.399-.123.682-.438.966-.682.146-.135.322-.175.526-.043.311.205.287.896.481 1.203.567-.159 1.187-.424 1.289-1.038.102-.618-.008-.728.319-1.055.435-.423 1.371-.613 1.977-.724-1.023 2.174-3.858 4.156-7.292 3.59z"/></g><g fill="#C00"><path d="M9.456 57.271c-.766.196-1.314.314-1.666.36-.352.038-.716.062-1.112.062-1.6 0-2.767-.425-3.495-1.28-.729-.85-1.093-1.923-1.093-3.226 0-.854.159-1.624.478-2.303a3.591 3.591 0 0 1 1.451-1.6c.65-.388 1.53-.582 2.641-.582.934 0 1.86.11 2.777.332v1.391c-.77-.26-1.331-.421-1.665-.468a6.455 6.455 0 0 0-.972-.076c-.997 0-1.722.32-2.164.975-.438.648-.659 1.433-.659 2.355 0 1.011.259 1.812.782 2.405.521.595 1.253.896 2.201.896a3.5 3.5 0 0 0 .715-.09v-2.821h1.781v3.67zM16.261 57.271c-.807.231-1.577.351-2.302.351-.686 0-1.285-.126-1.805-.385a2.626 2.626 0 0 1-1.188-1.196 3.853 3.853 0 0 1-.419-1.777c0-.597.119-1.142.354-1.646a2.8 2.8 0 0 1 1.032-1.188c.447-.291 1.004-.434 1.662-.434.814 0 1.453.253 1.941.773.481.517.723 1.479.723 2.892h-3.914c.037.429.133.764.292 1.012.154.247.364.441.627.59.265.142.62.212 1.062.212.574 0 1.215-.129 1.933-.391l.002 1.187zm-3.948-3.583h2.271c0-.579-.097-.99-.289-1.246a.914.914 0 0 0-.754-.374c-.338 0-.608.137-.826.411-.215.274-.352.678-.402 1.209zM17.463 57.481v-6.344h1.639v1.19c.217-.384.501-.702.85-.957.349-.252.777-.376 1.291-.376.304 0 .57.04.799.143.227.091.426.237.6.437.178.204.291.454.341.755.317-.474.631-.819.96-1.024.323-.204.716-.309 1.181-.309.518 0 .938.148 1.257.453.32.304.481.788.481 1.463v4.569H25.22V53.46c0-.475-.078-.778-.227-.917a.73.73 0 0 0-.514-.21c-.254 0-.508.092-.759.277-.253.188-.501.467-.74.835v4.035h-1.64v-4.017c0-.471-.076-.774-.221-.92a.754.754 0 0 0-.539-.212c-.244 0-.497.092-.744.275-.249.186-.491.462-.735.837v4.035h-1.639v.003zM33.568 57.271c-.809.231-1.579.351-2.306.351-.682 0-1.284-.126-1.8-.385-.518-.255-.91-.654-1.193-1.196a3.94 3.94 0 0 1-.417-1.777c0-.597.119-1.142.358-1.646a2.778 2.778 0 0 1 1.031-1.188c.448-.291 1.004-.434 1.661-.434.812 0 1.458.253 1.94.773.484.517.725 1.479.725 2.892h-3.915c.041.429.137.764.291 1.012.154.247.363.441.631.59.266.142.614.212 1.06.212.573 0 1.216-.129 1.934-.391v1.187zm-3.949-3.583h2.276c0-.579-.1-.99-.292-1.246a.92.92 0 0 0-.756-.374.997.997 0 0 0-.823.411c-.218.274-.354.678-.405 1.209zM40.155 57.271c-.807.231-1.576.351-2.301.351-.686 0-1.289-.126-1.804-.385-.518-.255-.912-.654-1.189-1.196a3.862 3.862 0 0 1-.415-1.777c0-.597.115-1.142.351-1.646.241-.502.58-.896 1.029-1.188.452-.291 1.009-.434 1.669-.434.808 0 1.451.253 1.934.773.483.517.728 1.479.728 2.892h-3.913c.035.429.133.764.29 1.012.155.247.363.441.63.59.263.142.617.212 1.062.212.565 0 1.211-.129 1.931-.391l-.002 1.187zm-3.948-3.583h2.271c0-.579-.098-.99-.29-1.246a.916.916 0 0 0-.755-.374.999.999 0 0 0-.823.411c-.214.274-.351.678-.403 1.209zM41.476 57.481v-6.344h1.709v1.188c.312-.485.652-.831 1.026-1.032a2.375 2.375 0 0 1 1.144-.299c.498 0 .932.158 1.29.479.361.321.543.83.543 1.521v4.485h-1.712v-4.068c0-.344-.029-.58-.097-.703a.62.62 0 0 0-.26-.277.708.708 0 0 0-.369-.099c-.238 0-.48.08-.736.232-.254.153-.533.462-.829.918v3.997l-1.709.002zM52.046 57.448c-.413.112-.73.174-.969.174-.559 0-.994-.081-1.3-.24a1.573 1.573 0 0 1-.694-.637c-.153-.272-.233-.672-.233-1.198V52.21h-.698v-1.072h.698V50.06l1.714-.198v1.276h1.34v1.072h-1.34v3.104c0 .456.077.764.242.921.162.162.403.238.714.238.142 0 .32-.021.526-.066v1.041zM58.317 57.271c-.809.231-1.576.351-2.301.351-.688 0-1.288-.126-1.802-.385-.521-.255-.915-.654-1.196-1.196a3.924 3.924 0 0 1-.413-1.777c0-.597.12-1.142.353-1.646a2.835 2.835 0 0 1 1.029-1.188c.451-.291 1.01-.434 1.664-.434.812 0 1.458.253 1.94.773.48.517.725 1.479.725 2.892h-3.911c.036.429.134.764.291 1.012a1.7 1.7 0 0 0 .626.59c.266.142.617.212 1.062.212.573 0 1.214-.129 1.933-.391v1.187zm-3.949-3.583h2.273c0-.579-.097-.99-.292-1.246a.906.906 0 0 0-.751-.374c-.337 0-.608.137-.826.411-.213.274-.351.678-.404 1.209zM62.879 48.915h1.773v5.253c0 .944.166 1.57.483 1.881.32.309.742.465 1.253.465.505 0 .906-.153 1.208-.456.295-.308.443-.896.443-1.766v-5.377h1.556v5.26c0 .986-.125 1.702-.377 2.134a2.612 2.612 0 0 1-1.077 1.013c-.474.246-1.064.373-1.787.373-.713 0-1.318-.115-1.829-.346a2.81 2.81 0 0 1-1.206-1.025c-.297-.455-.44-1.178-.44-2.165v-5.244zM74.633 57.448c-.404.112-.729.174-.963.174-.558 0-.991-.081-1.303-.24a1.609 1.609 0 0 1-.691-.637c-.155-.272-.231-.672-.231-1.198V52.21h-.702v-1.072h.702V50.06l1.707-.198v1.276H74.5v1.072h-1.349v3.104c0 .456.086.764.245.921.163.162.401.238.712.238.15 0 .322-.021.524-.066v1.041zM75.942 57.481v-6.344h1.709v1.195c.206-.409.482-.735.843-.981a2.097 2.097 0 0 1 1.18-.355c.105 0 .213.006.319.019v1.531a2.044 2.044 0 0 0-.677-.124c-.34 0-.646.085-.923.26-.285.173-.525.435-.742.779v4.021l-1.709-.001zM86.178 57.271c-.811.231-1.577.351-2.302.351-.687 0-1.287-.126-1.807-.385-.519-.255-.911-.654-1.185-1.196a3.827 3.827 0 0 1-.418-1.777c0-.597.114-1.142.35-1.646a2.858 2.858 0 0 1 1.027-1.188c.454-.291 1.01-.434 1.673-.434.808 0 1.456.253 1.932.773.485.517.729 1.479.729 2.892h-3.915c.04.429.136.764.291 1.012.153.247.365.441.63.59.262.142.619.212 1.062.212.572 0 1.215-.129 1.934-.391v1.187h-.001zm-3.95-3.583h2.273c0-.579-.098-.99-.291-1.246a.914.914 0 0 0-.755-.374c-.333 0-.608.137-.823.411-.214.274-.348.678-.404 1.209zM92.33 57.336a7.522 7.522 0 0 1-1.971.285c-1.075 0-1.891-.32-2.432-.963-.545-.639-.816-1.426-.816-2.358 0-.976.287-1.771.865-2.389.577-.612 1.424-.916 2.54-.916.516 0 1.104.08 1.775.245v1.232c-.696-.224-1.25-.333-1.662-.333-.592 0-1.023.224-1.292.667a2.74 2.74 0 0 0-.412 1.479c0 .413.079.801.237 1.154.153.358.373.622.651.787.281.166.6.245.948.245.506 0 1.03-.104 1.565-.314v1.179h.004zM93.57 57.481V48.35h1.709v3.977c.311-.485.647-.831 1.023-1.032a2.382 2.382 0 0 1 1.142-.299c.505 0 .937.158 1.295.479.356.321.54.83.54 1.521v4.485h-1.71v-4.068c0-.344-.03-.58-.094-.703a.617.617 0 0 0-.264-.277.7.7 0 0 0-.366-.099c-.237 0-.482.08-.738.232-.255.153-.531.462-.828.918v3.997H93.57zM104.137 57.448c-.414.112-.729.174-.969.174-.558 0-.989-.081-1.299-.24a1.597 1.597 0 0 1-.695-.637c-.152-.272-.23-.672-.23-1.198V52.21h-.706v-1.072h.706V50.06l1.71-.198v1.276h1.341v1.072h-1.341v3.104c0 .456.081.764.242.921.162.162.398.238.712.238.148 0 .323-.021.529-.066v1.041z"/></g></svg>